# xmcd
#
# Track frame offsets: 
#        150
#        11355
#        22220
#        33098
#        42845
#        54637
#        67666
#        81440
#        91487
#        102748
#        113652
#        125323
#        137933
#        151732
#        166638
#        178565
#        187705
#        199186
#        210835
#        223123
#
# Disc length: 3131 seconds
#
# Revision: 0
# Processed by: cddbd v1.5.2PL0 Copyright (c) Steve Scherf et al.
# Submitted via: ExactAudioCopyFreeDBPlugin 1.0
#
DISCID=020c3914
DTITLE=Screamin' Jay Hawkins - The Singles Collection [CD 1)
DYEAR=2013
DGENRE=Blues
TTITLE0=I Put a Spell on You
TTITLE1=Little Demon
TTITLE2=Yellow Coat
TTITLE3=Person to Person
TTITLE4=I Hear Voices
TTITLE5=This Is All
TTITLE6=She Put the Whamee on Me
TTITLE7=Frenzy
TTITLE8=Ashes
TTITLE9=Just Don't Care
TTITLE10=You're all of My Life to Me
TTITLE11=Even Though
TTITLE12=Not Anymore
TTITLE13=Please Try to Understand
TTITLE14=I Is
TTITLE15=You made Me Love You (I Didn't Want to Do It)
TTITLE16=Talk About Me
TTITLE17=Well I Tried
TTITLE18=I Found My Way to Wine
TTITLE19=Baptize Me in Wine
EXTD=
EXTT0=
EXTT1=
EXTT2=
EXTT3=
EXTT4=
EXTT5=
EXTT6=
EXTT7=
EXTT8=
EXTT9=
EXTT10=
EXTT11=
EXTT12=
EXTT13=
EXTT14=
EXTT15=
EXTT16=
EXTT17=
EXTT18=
EXTT19=
PLAYORDER=
